<svg width="26" height="30" viewBox="0 0 26 30" fill="none" xmlns="http://www.w3.org/2000/svg">
<path d="M13.007 0.833313C16.8036 0.833313 19.9249 3.81668 20.0833 7.59694H20.0463C20.0508 7.70682 20.0296 7.81624 19.9846 7.91665H20.2058C21.9299 7.91665 23.7353 9.11162 24.4592 11.9964L24.5378 12.3367L25.6271 21.1125C26.411 26.7098 23.3487 29.0636 19.1713 29.1633L18.8912 29.1666H7.14708C2.90168 29.1666 -0.369729 27.6196 0.349565 21.4933L0.398615 21.1125L1.50041 12.3367C2.0437 9.23016 3.86761 8.00483 5.625 7.92127L5.81993 7.91665H5.93067C5.912 7.81089 5.912 7.7027 5.93067 7.59694C6.08911 3.81668 9.21041 0.833313 13.007 0.833313ZM8.88741 12.6331C8.19593 12.6331 7.63538 13.2101 7.63538 13.9218C7.63538 14.6335 8.19593 15.2105 8.88741 15.2105C9.57889 15.2105 10.1394 14.6335 10.1394 13.9218L10.1297 13.7602C10.0524 13.1247 9.5257 12.6331 8.88741 12.6331ZM17.0882 12.6331C16.3968 12.6331 15.8362 13.2101 15.8362 13.9218C15.8362 14.6335 16.3968 15.2105 17.0882 15.2105C17.7797 15.2105 18.3403 14.6335 18.3403 13.9218C18.3403 13.2101 17.7797 12.6331 17.0882 12.6331ZM12.9515 2.67836C10.2257 2.67836 8.01594 4.88048 8.01594 7.59694C8.03462 7.7027 8.03462 7.81089 8.01594 7.91665H17.9487C17.9093 7.81457 17.8884 7.70631 17.887 7.59694C17.887 4.88048 15.6773 2.67836 12.9515 2.67836Z" fill="white"/>
</svg>
