<svg width="49" height="50" viewBox="0 0 49 50" fill="none" xmlns="http://www.w3.org/2000/svg">
<rect x="0.0195312" y="0.838867" width="48.743" height="48.743" rx="24.3715" fill="#0D1B39"/>
<path d="M34.1339 25.2103C34.1339 24.4411 33.5104 23.8176 32.7413 23.8176H25.778V16.8543C25.778 16.0852 25.1545 15.4617 24.3853 15.4617C23.6162 15.4617 22.9927 16.0852 22.9927 16.8543V23.8176H16.0294C15.2602 23.8176 14.6367 24.4411 14.6367 25.2103C14.6367 25.9794 15.2602 26.6029 16.0294 26.6029H22.9927V33.5662C22.9927 34.3354 23.6162 34.9589 24.3853 34.9589C25.1545 34.9589 25.778 34.3354 25.778 33.5662V26.6029H32.7413C33.5104 26.6029 34.1339 25.9794 34.1339 25.2103Z" fill="white"/>
</svg>
