<svg width="17" height="16" viewBox="0 0 17 16" fill="none" xmlns="http://www.w3.org/2000/svg">
<path d="M12.9726 9.90807C12.7753 10.0992 12.6847 10.3757 12.7297 10.6468L13.4067 14.394C13.4638 14.7116 13.3298 15.033 13.064 15.2165C12.8035 15.4069 12.457 15.4298 12.1729 15.2775L8.79975 13.5181C8.68246 13.4557 8.55222 13.4222 8.41894 13.4184H8.21254C8.14095 13.429 8.07089 13.4519 8.00691 13.4869L4.63298 15.2546C4.46619 15.3384 4.27731 15.3681 4.09223 15.3384C3.64136 15.2531 3.34053 14.8236 3.4144 14.3704L4.09223 10.6232C4.13717 10.3498 4.04654 10.0718 3.84928 9.87761L1.09911 7.21195C0.869102 6.9888 0.789133 6.65369 0.894235 6.35132C0.996291 6.04972 1.25676 5.82962 1.57131 5.78011L5.35651 5.23098C5.6444 5.20128 5.89725 5.02611 6.02672 4.76716L7.69465 1.3475C7.73425 1.27134 7.78528 1.20127 7.84697 1.14186L7.91552 1.08855C7.95131 1.04895 7.99244 1.0162 8.03814 0.98954L8.12115 0.959075L8.25063 0.905762H8.57126C8.85763 0.935465 9.10972 1.10683 9.24148 1.36273L10.9315 4.76716C11.0533 5.01621 11.2902 5.1891 11.5636 5.23098L15.3488 5.78011C15.6687 5.82581 15.936 6.04668 16.0419 6.35132C16.1417 6.65673 16.0556 6.99184 15.821 7.21195L12.9726 9.90807Z" fill="#F6B76F"/>
</svg>
